<svg width="20" height="20" viewBox="0 0 20 20" fill="none" xmlns="http://www.w3.org/2000/svg">
<path d="M9.75 19.5C7.82164 19.5 5.93657 18.9282 4.33319 17.8568C2.72982 16.7855 1.48013 15.2627 0.742179 13.4812C0.00422452 11.6996 -0.188858 9.73919 0.187348 7.84787C0.563554 5.95656 1.49215 4.21928 2.85571 2.85571C4.21928 1.49215 5.95656 0.563554 7.84787 0.187348C9.73919 -0.188858 11.6996 0.00422452 13.4812 0.742179C15.2627 1.48013 16.7855 2.72982 17.8568 4.33319C18.9282 5.93657 19.5 7.82164 19.5 9.75C19.5 12.3359 18.4728 14.8158 16.6443 16.6443C14.8158 18.4728 12.3359 19.5 9.75 19.5V19.5ZM9.75 1.5C8.11831 1.5 6.52326 1.98386 5.16655 2.89038C3.80984 3.7969 2.75242 5.08538 2.128 6.59287C1.50358 8.10036 1.3402 9.75916 1.65853 11.3595C1.97685 12.9598 2.76259 14.4299 3.91637 15.5836C5.07016 16.7374 6.54017 17.5232 8.14051 17.8415C9.74085 18.1598 11.3997 17.9964 12.9071 17.372C14.4146 16.7476 15.7031 15.6902 16.6096 14.3335C17.5162 12.9768 18 11.3817 18 9.75C18 7.56197 17.1308 5.46355 15.5836 3.91637C14.0365 2.3692 11.938 1.5 9.75 1.5Z" fill="#9E1ACD"/>
<path d="M13.875 14.625C13.7763 14.6256 13.6785 14.6067 13.5871 14.5693C13.4957 14.532 13.4126 14.477 13.3425 14.4075L9.2175 10.2825C9.14799 10.2124 9.093 10.1293 9.05568 10.0379C9.01835 9.94655 8.99943 9.84871 9 9.75V3.75C9 3.55109 9.07902 3.36032 9.21968 3.21967C9.36033 3.07902 9.55109 3 9.75001 3C9.94892 3 10.1397 3.07902 10.2803 3.21967C10.421 3.36032 10.5 3.55109 10.5 3.75V9.4425L14.4075 13.3425C14.4778 13.4122 14.5336 13.4952 14.5717 13.5866C14.6098 13.678 14.6294 13.776 14.6294 13.875C14.6294 13.974 14.6098 14.072 14.5717 14.1634C14.5336 14.2548 14.4778 14.3378 14.4075 14.4075C14.3374 14.477 14.2543 14.532 14.1629 14.5693C14.0716 14.6067 13.9737 14.6256 13.875 14.625Z" fill="#9E1ACD"/>
</svg>
